<?xml version="1.0" encoding="UTF-8"?>
<svg version="1.1" xmlns="http://www.w3.org/2000/svg" width="30" height="30">
<path d="M0 0 C2.64 0 5.28 0 8 0 C8 2.64 8 5.28 8 8 C7.443125 7.731875 6.88625 7.46375 6.3125 7.1875 C5.549375 7.125625 4.78625 7.06375 4 7 C3.175 7.825 2.35 8.65 1.5 9.5 C0.2625 10.7375 0.2625 10.7375 -1 12 C-4.11189674 11.90847363 -5.34674377 10.76883749 -8 9 C-8.58007812 9.66708984 -8.58007812 9.66708984 -9.171875 10.34765625 C-9.69265625 10.91355469 -10.2134375 11.47945312 -10.75 12.0625 C-11.26046875 12.63097656 -11.7709375 13.19945312 -12.296875 13.78515625 C-14 15 -14 15 -16.203125 14.68359375 C-16.79609375 14.45800781 -17.3890625 14.23242188 -18 14 C-16.55218207 10.55571735 -14.72305391 8.63869038 -11.875 6.25 C-11.15054687 5.63640625 -10.42609375 5.0228125 -9.6796875 4.390625 C-8.84824219 3.70226562 -8.84824219 3.70226562 -8 3 C-6.02 4.32 -4.04 5.64 -2 7 C0.28728734 5.16116119 0.28728734 5.16116119 0.125 2.375 C0.08375 1.59125 0.0425 0.8075 0 0 Z " fill="#5BC772" transform="translate(20,6)"/>
</svg>
