<?xml version="1.0" encoding="UTF-8"?>
<svg version="1.1" xmlns="http://www.w3.org/2000/svg" width="30" height="30">
<path d="M0 0 C0.99 0 1.98 0 3 0 C3 2.97 3 5.94 3 9 C9.6 9 16.2 9 23 9 C23 6.03 23 3.06 23 0 C23.99 0 24.98 0 26 0 C26.02687279 1.81242052 26.04633715 3.62495233 26.0625 5.4375 C26.07410156 6.44683594 26.08570312 7.45617187 26.09765625 8.49609375 C26 11 26 11 25 12 C23.23140807 12.09946453 21.45888549 12.13080217 19.6875 12.1328125 C18.61242187 12.13410156 17.53734375 12.13539062 16.4296875 12.13671875 C15.29789063 12.13285156 14.16609375 12.12898438 13 12.125 C11.86820313 12.12886719 10.73640625 12.13273437 9.5703125 12.13671875 C8.49523437 12.13542969 7.42015625 12.13414063 6.3125 12.1328125 C5.31863281 12.13168457 4.32476562 12.13055664 3.30078125 12.12939453 C1 12 1 12 0 11 C-0.07226502 9.14712498 -0.0838122 7.29166122 -0.0625 5.4375 C-0.05347656 4.42558594 -0.04445312 3.41367187 -0.03515625 2.37109375 C-0.02355469 1.58863281 -0.01195313 0.80617188 0 0 Z " fill="#FFCA03" transform="translate(2,13)"/>
<path d="M0 0 C2.99324263 1.0975223 3.84610901 1.67682892 5.25 4.625 C5.4975 5.40875 5.745 6.1925 6 7 C5.01 7 4.02 7 3 7 C3 9.31 3 11.62 3 14 C1.68 14 0.36 14 -1 14 C-1 11.69 -1 9.38 -1 7 C-1.99 7 -2.98 7 -4 7 C-2.92598892 4.08482708 -2.22189824 2.22189824 0 0 Z " fill="#FFCB03" transform="translate(14,5)"/>
</svg>
